<?xml version="1.0" encoding="utf-8"?>
<!-- Generator: Adobe Illustrator 26.3.1, SVG Export Plug-In . SVG Version: 6.00 Build 0)  -->
<svg version="1.1" id="레이어_1" xmlns="http://www.w3.org/2000/svg" xmlns:xlink="http://www.w3.org/1999/xlink" x="0px"
	 y="0px" viewBox="0 0 85 85" style="enable-background:new 0 0 85 85;" xml:space="preserve">
<style type="text/css">
	.st0{fill:#4E5968;}
</style>
<g>
	<path class="st0" d="M47,35.7h5.6c-0.1,0.5-0.2,1-0.2,1.5c0,0.5,0.1,1,0.2,1.5l-5.3,0L47,35.7z"/>
</g>
<g>
	<path class="st0" d="M67.8,35.7h5.6l-0.1,1.2L73,38.7h-5.3c0.1-0.5,0.2-1,0.2-1.5C67.9,36.7,67.8,36.1,67.8,35.7L67.8,35.7z"/>
</g>
<g>
	<path class="st0" d="M60.2,32.8c2.4,0,4.4,1.9,4.4,4.4c0,2.4-2,4.4-4.4,4.4c-2.4,0-4.4-2-4.4-4.4S57.7,32.8,60.2,32.8z"/>
</g>
<path class="st0" d="M57.6,68.8c-0.3-0.4-0.8-0.6-1.3-0.6c-0.9,0-1.6,0.6-1.7,1.4c-0.4,2.9-3,5.1-5.9,5.1H14.2c-3,0-5.5-2.2-5.9-5.1
	c-0.1-0.8-0.8-1.4-1.7-1.4c-0.5,0-1,0.2-1.3,0.6c-0.3,0.4-0.5,0.9-0.4,1.4c0.3,2.2,1.5,4.3,3.2,5.8c1.7,1.5,3.9,2.3,6.2,2.3h34.4
	c2.3,0,4.5-0.8,6.2-2.3c1.7-1.5,2.8-3.5,3.2-5.8C58,69.6,57.9,69.1,57.6,68.8z"/>
<path class="st0" d="M78.3,15.2h-2.9L72,8.9C71.7,8.3,71.2,8,70.5,8H49.8c-0.1,0-0.1,0-0.2,0c-0.6,0.1-1,0.4-1.3,0.9l-3.4,6.3H42
	c-0.1,0-0.1,0-0.2,0c-0.9,0.1-1.5,0.8-1.5,1.7V23c0,0.9,0.7,1.7,1.7,1.7h0.4l1,9.7l0.6,6.1c0,0,0,0,0,0l0,0L32.8,33
	c-0.9-0.6-2-0.6-2.9,0L5.6,49.2c-0.7,0.5-1.2,1.3-1.2,2.2v6c0,0.9,0.7,1.6,1.6,1.6h50.3v1.9c-0.3,0-0.5,0-0.8,0.1v0
	c-1.4,0.6-2.2,1.7-2.9,2.6c-0.8,1.1-1.2,1.5-1.9,1.5s-1-0.4-1.9-1.5c-0.9-1.2-2.1-3-4.6-3c-2.5,0-3.7,1.7-4.6,3
	c-0.8,1.1-1.2,1.5-1.8,1.5s-1-0.4-1.8-1.5c-0.9-1.2-2.1-3-4.6-3c-2.5,0-3.7,1.7-4.6,3c-0.8,1.1-1.2,1.5-1.8,1.5
	c-0.7,0-1-0.4-1.8-1.5c-0.9-1.2-2.1-3-4.6-3c-2.5,0-3.7,1.7-4.6,3c-0.8,1.1-1.2,1.5-1.8,1.5c-0.7,0-1-0.4-1.8-1.5
	c-0.7-0.9-1.5-2.1-2.9-2.6C6.6,60.7,6,60.7,5.5,61c-0.5,0.3-0.8,0.8-0.8,1.4c0,0.7,0.4,1.3,1.1,1.6c0.4,0.2,0.8,0.7,1.4,1.5
	c0.9,1.2,2.1,3,4.6,3c2.5,0,3.7-1.7,4.6-3c0.8-1.1,1.2-1.5,1.8-1.5c0.7,0,1,0.4,1.8,1.5c0.9,1.2,2.1,3,4.6,3c2.5,0,3.7-1.7,4.6-3
	c0.8-1.1,1.2-1.5,1.8-1.5c0.7,0,1,0.4,1.8,1.5c0.9,1.2,2.1,3,4.6,3c2.5,0,3.7-1.7,4.6-3c0.8-1.1,1.2-1.5,1.8-1.5
	c0.7,0,1,0.4,1.9,1.5c0.9,1.2,2.1,3,4.6,3c2.5,0,3.7-1.7,4.6-3c0.6-0.8,0.9-1.3,1.4-1.5c0.6-0.3,1.1-0.9,1-1.6
	c0-0.3-0.1-0.6-0.3-0.9h14.9c0.9,0,1.6-0.7,1.7-1.5l2.1-19.5l0.7-6.4c0,0,0,0,0,0l1-9.4h0.4c0.9,0,1.7-0.7,1.7-1.7v-6.2
	C80,15.9,79.2,15.2,78.3,15.2z M50.8,11.4h18.7l2.1,3.8H48.7L50.8,11.4z M7.8,55.5v-2.9h36.2c1,0,1.7-0.8,1.7-1.7
	c0-1-0.8-1.7-1.7-1.7H11.8l18.7-12.4c0.5-0.3,1.1-0.3,1.5,0l22.7,15.1l0,3.7H7.8z M52.6,38.7l-5.3,0l-0.3-3h5.6
	c-0.1,0.5-0.2,1-0.2,1.5S52.5,38.2,52.6,38.7z M71,58.2l-13,0c0.2-0.3,0.3-0.6,0.3-0.9v-6c0-0.9-0.4-1.7-1.2-2.2L47.7,43l-0.1-1h6.5
	c1.4,1.7,3.6,2.9,6,2.9s4.5-1.1,6-2.9h6.5L71,58.2z M55.8,37.2c0-2.4,1.9-4.4,4.4-4.4c2.4,0,4.4,1.9,4.4,4.4c0,2.4-2,4.4-4.4,4.4
	C57.7,41.6,55.8,39.6,55.8,37.2z M73.2,36.8L73,38.7h-5.3c0.1-0.5,0.2-1,0.2-1.5c0-0.5-0.1-1-0.2-1.5l0,0h5.6L73.2,36.8z M73.7,32.3
	h-7.6c-1.4-1.7-3.6-2.9-6-2.9c-2.4,0-4.5,1.1-6,2.9l-7.6,0l-0.8-7.6h28.7L73.7,32.3z M76.7,21.4h-33l0-2.9h33V21.4z"/>
</svg>
