<?xml version="1.0" encoding="utf-8"?>
<!-- Generator: Adobe Illustrator 26.3.1, SVG Export Plug-In . SVG Version: 6.00 Build 0)  -->
<svg version="1.1" id="레이어_1" xmlns="http://www.w3.org/2000/svg" xmlns:xlink="http://www.w3.org/1999/xlink" x="0px"
	 y="0px" viewBox="0 0 85 85" style="enable-background:new 0 0 85 85;" xml:space="preserve">
<style type="text/css">
	.st0{fill:#4E5968;}
</style>
<path class="st0" d="M82.6,50.7c-2.4-5.3-7.7-8.7-13.5-8.7c0,0,0,0,0,0c-1.3,0-2.5,0.2-3.7,0.5l-0.8,0.2L60.7,34H65c1.1,0,2-0.9,2-2
	v-2c0-1.1-0.9-2-2-2h-9c-1.1,0-2,0.9-2,2v1.4H32.2l4.2-6.9c0.8-1.3,0.8-3,0-4.3c-0.8-1.3-2.2-2.2-3.7-2.2h-10
	c-3.1,0-5.6,2.5-5.6,5.7c0,3.1,2.5,5.7,5.6,5.7H24c0.9,0,1.6-0.7,1.6-1.7c0-0.9-0.7-1.7-1.6-1.7h-1.3c-1.3,0-2.3-1-2.3-2.3
	s1-2.3,2.3-2.3h9c0.5,0,1,0.3,1.3,0.8c0.2,0.3,0.2,0.7,0.2,1l0.1,0l-5.1,8.7v0.1l-6.3,11.3L21,42.9c-7.3-2.7-15.3,0.6-18.6,7.8
	c-3.2,7-0.5,15.5,6.1,19.4c6.8,3.9,15.2,2,19.7-4.5c4.4-6.4,3.1-15.2-2.8-20.1l-0.6-0.5l4.5-8l6.5,14.7c-1,1.2-1.6,2.8-1.6,4.5
	c0,3.9,3.1,7,7,7c2.9,0,5.4-1.8,6.4-4.3h6.8l0.1,0.8c1,5.7,5.2,10.5,10.8,12c5.6,1.5,11.6-0.4,15.3-4.8C84.2,62.3,85,56,82.6,50.7z
	 M27.7,57.1c0,4.7-2.8,9-7.2,10.8c-1.4,0.6-3,0.9-4.5,0.9c-3,0-6-1.2-8.2-3.4C4.5,62,3.5,57,5.3,52.6c1.8-4.4,6-7.2,10.7-7.2
	c1,0,2,0.2,2.9,0.4l1.2,0.3l-5.6,10.1c-0.2,0.4-0.3,0.8-0.1,1.3c0.1,0.4,0.4,0.8,0.8,1c0.8,0.5,1.8,0.1,2.2-0.6l5.6-10.2l0.9,0.9
	C26.3,50.8,27.6,53.9,27.7,57.1z M43.7,49.6C42.9,49.2,42,49,41,49c-0.9,0-1.7,0.2-2.5,0.5l-6.6-14.8h23.3L43.7,49.6z M54.4,54.6
	l-0.1,0.8H48c-0.1-1.5-0.8-2.9-1.7-4l11.7-15.1l3.6,7.8l-0.7,0.5C57.4,46.8,55.1,50.5,54.4,54.6z M57.9,54.1c0.6-2.4,2.1-4.6,4-6.2
	l1-0.8l3.6,8.2h-9L57.9,54.1z M69.1,68.7L69.1,68.7c-5.3,0-9.9-3.6-11.2-8.8l-0.3-1.2h11.5c0.6,0,1.1-0.3,1.4-0.8
	c0.3-0.5,0.4-1.1,0.1-1.6l-4.6-10.5l1.2-0.2c0.7-0.1,1.3-0.2,1.9-0.2c6.4,0,11.6,5.2,11.6,11.7S75.5,68.7,69.1,68.7z"/>
<path class="st0" d="M73.5,3.5c-6.1,0-11,4.9-11,11c0,6.1,4.9,11.1,11,11.1s11-5,11-11.1C84.5,8.4,79.6,3.5,73.5,3.5z M68.1,13v3.1
	l-2.5,1.5c-0.4-0.9-0.6-1.9-0.6-3c0-1,0.2-2,0.5-3c0.5,0.3,0.8,0.4,1.1,0.6C67.1,12.4,67.5,12.6,68.1,13z M69.4,18.4
	c0.4,0.2,0.8,0.4,1.1,0.6c0.5,0.3,0.9,0.5,1.7,1v2.9c-2.1-0.4-3.9-1.4-5.2-3.1C67.7,19.3,68.5,18.9,69.4,18.4z M72.2,9.1
	c-0.7,0.4-1.4,0.8-2.1,1.2l-0.6,0.3l-0.7-0.4c-0.6-0.3-0.7-0.4-1.8-1.1c1.3-1.6,3.2-2.7,5.3-3V9.1z M76.2,13v3.1l-2.7,1.6
	c-1-0.5-1.9-1.1-2.7-1.6V13l2.7-1.6C74.4,11.9,75.3,12.4,76.2,13z M77.5,10.7l-2.7-1.5v-3c2.1,0.3,3.9,1.4,5.2,3.1L77.5,10.7z
	 M74.8,20l2.7-1.6c0.6,0.3,1.2,0.7,1.8,1c0.3,0.2,0.5,0.3,0.8,0.5c-1.3,1.6-3.2,2.7-5.2,3V20z M81.9,14.5c0,1.1-0.2,2.1-0.6,3.1
	c-0.4-0.2-0.8-0.4-1.1-0.6c-0.5-0.3-0.9-0.5-1.4-0.8V13l2.5-1.5C81.7,12.5,81.9,13.5,81.9,14.5z"/>
</svg>
