<?xml version="1.0" encoding="utf-8"?>
<!-- Generator: Adobe Illustrator 26.3.1, SVG Export Plug-In . SVG Version: 6.00 Build 0)  -->
<svg version="1.1" id="레이어_1" xmlns="http://www.w3.org/2000/svg" xmlns:xlink="http://www.w3.org/1999/xlink" x="0px"
	 y="0px" viewBox="0 0 85 85" style="enable-background:new 0 0 85 85;" xml:space="preserve">
<style type="text/css">
	.st0{fill:#4E5968;}
</style>
<g>
	<path class="st0" d="M29.3,54.4c1.4,0,2.5-1.2,2.5-2.6s-1.1-2.6-2.5-2.6c-1.4,0-2.5,1.2-2.5,2.6S27.9,54.4,29.3,54.4z"/>
	<path class="st0" d="M75.8,38l-6.2-7l-0.5-9.4c-0.2-3.4-2.8-6-6.2-6.2L53.7,15l-6.9-6.3c-2.5-2.3-6.2-2.3-8.7,0L31.3,15L22,15.5
		c-3.3,0.2-6,2.9-6.2,6.2L15.4,31l-6.2,7c-2.2,2.5-2.2,6.3,0,8.8l6.2,7l0.5,9.4c0.2,3.4,2.8,6,6.2,6.2l9.2,0.5l7.3,6.6l0,0
		c1.2,0.9,2.6,1.4,4,1.4c1.6,0,3.1-0.6,4.4-1.7l6.9-6.3l9.2-0.5c3.3-0.2,6-2.9,6.2-6.2l0.5-9.4l6.5-7.4l0,0
		C78,43.9,77.9,40.4,75.8,38z M35,34.5v22.9H23.6V34.5H35z M56.3,36.6c1.5,0,2.8,0.6,3.8,1.8c1,1.1,1.4,2.6,1.2,4.1l-1.5,11.5
		c-0.3,2.6-2.5,4.5-5,4.5h-5.9c-1.8,0-4-0.4-6.3-1.3c-1.8-0.7-3.2-1.4-3.9-1.8l-0.2-0.1l0,0v-19l0.5-0.4c3.1-2.9,6.1-5.6,6.6-9.8
		c0.4-3,2.5-4.2,4.3-4.1c1.8,0.2,3.6,1.7,3.5,4.8c-0.1,2-0.4,3.9-0.9,5.4c-0.4,1.5-1,2.8-1.8,3.8l-0.6,0.8H56.3z"/>
</g>
</svg>
