<?xml version="1.0" encoding="utf-8"?>
<!-- Generator: Adobe Illustrator 26.3.1, SVG Export Plug-In . SVG Version: 6.00 Build 0)  -->
<svg version="1.1" id="레이어_1" xmlns="http://www.w3.org/2000/svg" xmlns:xlink="http://www.w3.org/1999/xlink" x="0px"
	 y="0px" viewBox="0 0 85 85" style="enable-background:new 0 0 85 85;" xml:space="preserve">
<style type="text/css">
	.st0{fill:#4E5968;}
</style>
<g>
	<path class="st0" d="M59.3,41.3c0-2.1-0.2-4.2-0.5-6.3l-2.9,0.8c0.2,1.8,0.4,3.7,0.5,5.6H42.6l0-2l-1.9,0.5l-1-1.1l0,2.5H27.2
		l-10.5,2.8l-3.9-2.8h-1.5c0-0.3,0.1-0.7,0.1-1l-2.7-2c-0.2,1.5-0.3,3-0.3,4.5c0,1.8,0.2,3.6,0.5,5.4l3,0.3
		c-0.3-1.4-0.4-2.8-0.5-4.2h11.6c0,1.7,0.2,3.4,0.4,5.1c1,0,2,0.1,3,0c-0.2-1.7-0.4-3.4-0.4-5.2h13.8l0,2.8l2.6-0.7l-3.1,12.5
		c0.2,0,0.3,0,0.5,0V65l1-0.3c0.7-0.2,1.4-0.6,1.9-1.1v-4.8c1,0,2,0,3,0.1l1.6-2.9c-1.5-0.1-3-0.1-4.5-0.1l0-11.7h10.9l0.6-1.1
		l6.7-1.8H59.3z"/>
	<path class="st0" d="M58.4,32.9l-0.6,0.2l0.7,0.4C58.5,33.3,58.5,33.1,58.4,32.9z"/>
	<path class="st0" d="M42.6,34.1l0-4.4c1.3,0,2.6,0,3.8-0.1l-6.7-4.1v1.3c-2.7,0-5.2-0.1-7.6-0.3l3,3.1c1.5,0.1,3.1,0.1,4.7,0.1
		l0,4.8l0.3,0.4L42.6,34.1z"/>
	<path class="st0" d="M61.4,44.2h9.4c-0.2,5-1.8,9.9-4.4,14.2c-2.9-0.7-5.9-1.2-8.9-1.6c1-3.9,1.6-8,1.7-12l-3,0.8
		c-0.2,3.7-0.8,7.3-1.7,10.9c-1.3-0.1-2.7-0.2-4.1-0.3L48.9,59c1.6,0.1,3.2,0.2,4.7,0.3c-2.5,6.9-6.5,11.8-11,12.7v-4.8
		c-0.4,0.2-0.8,0.3-1.2,0.4l-1.8,0.5V72c-4.5-0.9-8.5-5.7-11-12.7c2.4-0.2,4.9-0.4,7.5-0.4l0.7-3c-3.2,0.1-6.2,0.3-9.1,0.5v0
		c-0.4-1.4-0.7-2.7-0.9-4.1c-1,0-2,0-3,0c0.3,1.5,0.6,3,0.9,4.4c-3,0.4-6,0.9-8.9,1.6c-1.4-2.2-2.4-4.5-3.2-6.9l-3.1-0.3
		c1.5,5.5,4.4,10.6,8.5,14.7c6.1,6.1,14.5,9.6,23.2,9.6c8.7,0,17-3.5,23.2-9.6c6.1-6.1,9.6-14.5,9.6-23.2c0-0.6,0-1.2-0.1-1.8
		L61.4,44.2z M32.3,71.3c-5.8-1.8-11-5.4-14.8-10.2c2.5-0.6,5.1-1,7.9-1.3l0,0C27.1,64.6,29.5,68.5,32.3,71.3L32.3,71.3z M49.9,71.3
		c2.8-2.7,5.2-6.7,6.8-11.6c2.8,0.3,5.4,0.8,7.9,1.3C60.9,65.9,55.7,69.4,49.9,71.3z"/>
	<path class="st0" d="M9.6,35.3l2.2,1.6c0.7-3.5,2-6.8,3.9-9.8c2.9,0.7,5.9,1.2,8.9,1.6c-0.9,3.5-1.4,7-1.6,10.6l3-0.8
		c0.3-3.2,0.8-6.4,1.7-9.5c1,0.1,1.9,0.2,2.9,0.2l-1.5-1.6c-0.8-0.8-1.1-2-0.8-3.1c0.3-0.9,0.9-1.7,1.8-2c2.5-5,5.8-8.4,9.5-9.1V22
		c0.3,0.1,0.7,0.3,1,0.5l2,1.2V13.5c4.5,0.9,8.5,5.7,11,12.7c-2,0.2-4.2,0.3-6.4,0.4l4.4,2.7c1-0.1,1.9-0.1,2.9-0.2v0
		c0.2,0.6,0.3,1.1,0.4,1.7l2.9-0.8c-0.1-0.4-0.2-0.9-0.3-1.3c3-0.4,6-0.9,8.9-1.6c0.2,0.3,0.3,0.5,0.5,0.8l3.7,0.6
		c-1.6-3.3-3.7-6.3-6.3-9C58.1,13.5,49.8,10,41.1,10s-17,3.5-23.2,9.6c-4.3,4.3-7.3,9.7-8.7,15.5C9.4,35.1,9.5,35.2,9.6,35.3z
		 M64.6,24.5c-2.5,0.6-5.1,1-7.9,1.3c-1.7-4.9-4-8.9-6.8-11.6C55.7,16.1,60.9,19.6,64.6,24.5z M32.3,14.3c-2.8,2.7-5.2,6.7-6.8,11.6
		c-2.8-0.3-5.4-0.8-7.9-1.3C21.3,19.6,26.5,16.1,32.3,14.3z"/>
	<path class="st0" d="M72,31.8l-3.4-0.6c1,2.4,1.7,4.9,2,7.4l2.9-0.8C73.2,35.8,72.7,33.8,72,31.8z"/>
</g>
<path class="st0" d="M44,61.6l10.1-18.5l22-5.9c1-0.3,1.8-1.2,1.9-2.2c0.1-1-0.5-1.9-1.4-2.4l-10.3-1.8L54,34.1l-4.9-2.9L39,25
	c-0.9-0.5-1.9-0.8-2.9-0.8c-0.5,0-1,0.1-1.5,0.2l-3.3,0.9c0,0-0.1,0-0.1,0.1c0,0.1,0,0.2,0,0.2l5.7,6l5.2,5.7l-25.5,6.8l-8.8-6.4
	c-0.7-0.5-1.5-0.6-2.4-0.4l-1,0.3c-0.1,0-0.1,0.1-0.1,0.1s0,0.1,0,0.2L8.3,46l-0.6,0.7c-0.1,0.1-0.2,0.3-0.2,0.6
	c0,0.5,0.4,0.8,0.8,0.8l13.3,1.2c4.8,0.4,9.5,0,14.2-1.2l6.4-1.7l-4.6,18.9c0,0,0,0.1,0.1,0.2c0.1,0.1,0.2,0.1,0.2,0l2.8-0.7
	c1.2-0.3,2.2-1.1,2.8-2L44,61.6z"/>
</svg>
