<?xml version="1.0" encoding="utf-8"?>
<!-- Generator: Adobe Illustrator 26.3.1, SVG Export Plug-In . SVG Version: 6.00 Build 0)  -->
<svg version="1.1" id="레이어_1" xmlns="http://www.w3.org/2000/svg" xmlns:xlink="http://www.w3.org/1999/xlink" x="0px"
	 y="0px" viewBox="0 0 85 85" style="enable-background:new 0 0 85 85;" xml:space="preserve">
<style type="text/css">
	.st0{fill:#4E5968;}
</style>
<path class="st0" d="M68.1,24.4h-6.8v-7c0-1.3-0.6-2.6-1.7-3.4c-1.1-0.9-2.5-1.2-3.8-0.9l-5.9,2V16v1.6V24v0.1h-2.7V16v-0.2
	c-0.7-0.6-1.5-1.6-2.4-1.6h-6.2c-0.8,0-1.6,0.9-2.2,1.5V16v8.1h-2.7V24v-6.4V16v-0.9l-5.9-2c-1.4-0.3-2.8,0-3.8,0.9
	c-1.1,0.8-1.7,2.1-1.7,3.4v7h-6.8c-1.9,0-3.4,1.5-3.4,3.4v7.6c0,1.7,1.2,3,2.7,3.4V73h54.1V38.9c1.6-0.3,2.7-1.7,2.7-3.4v-7.6
	C71.6,26,70,24.4,68.1,24.4z M34.3,70H17.7v-31h16.5V70z M65.8,70H49.1v-31h16.7V70z M68.6,35.5c0,0.2-0.2,0.4-0.4,0.4l-52.7,0
	c-0.2,0-0.4-0.2-0.4-0.4v-7.6c0-0.2,0.2-0.4,0.4-0.4h52.7c0.2,0,0.4,0.2,0.4,0.4V35.5z"/>
</svg>
