<?xml version="1.0" encoding="utf-8"?>
<!-- Generator: Adobe Illustrator 26.3.1, SVG Export Plug-In . SVG Version: 6.00 Build 0)  -->
<svg version="1.1" id="레이어_1" xmlns="http://www.w3.org/2000/svg" xmlns:xlink="http://www.w3.org/1999/xlink" x="0px"
	 y="0px" viewBox="0 0 85 85" style="enable-background:new 0 0 85 85;" xml:space="preserve">
<style type="text/css">
	.st0{fill:#4E5968;}
	.st1{fill:#FFFFFF;filter:url(#Adobe_OpacityMaskFilter);}
	
		.st2{mask:url(#path-4-inside-1_901_856_00000007404753387869520050000002557774686200052904_);fill:none;stroke:#4E5968;stroke-width:6;}
</style>
<path class="st0" d="M59.8,8.2L59.8,8.2c-0.3-0.3-0.6-0.4-1-0.4H2.2c-0.8,0-1.4,0.7-1.4,1.5v42c0,0.4,0.1,0.8,0.4,1
	c0.3,0.3,0.6,0.4,1,0.4h21.9v4.7h-1c-0.8,0-1.4,0.7-1.4,1.5c0,0.8,0.6,1.5,1.4,1.5h14.8c0.8,0,1.4-0.7,1.4-1.5
	c0-0.8-0.6-1.5-1.4-1.5h-1v-4.7h21.9c0.4,0,0.7-0.2,1-0.4c0.3-0.3,0.4-0.7,0.4-1v-42C60.2,8.9,60.1,8.5,59.8,8.2z M34,57.5h-7v-4.7
	h7V57.5z M57.4,49.8H3.7v-3.4h53.7V49.8z"/>
<g>
	<path class="st0" d="M52.4,77.1H8.6c-0.6,0-1.2-0.3-1.6-0.8c-0.4-0.5-0.5-1.1-0.4-1.7l2.5-10c0.2-0.9,1-1.5,1.9-1.5h38.9
		c0.9,0,1.7,0.6,1.9,1.5l2.5,10c0.1,0.6,0,1.2-0.4,1.7S53.1,77.1,52.4,77.1z M9.8,74.1h41.3l-2-8H11.8L9.8,74.1z"/>
</g>
<defs>
	<filter id="Adobe_OpacityMaskFilter" filterUnits="userSpaceOnUse" x="61.7" y="5" width="25.3" height="58">
		<feColorMatrix  type="matrix" values="1 0 0 0 0  0 1 0 0 0  0 0 1 0 0  0 0 0 1 0"/>
	</filter>
</defs>
<mask maskUnits="userSpaceOnUse" x="61.7" y="5" width="25.3" height="58" id="path-4-inside-1_901_856_00000007404753387869520050000002557774686200052904_">
	<path class="st1" d="M66.7,8H82c1.1,0,2,0.9,2,2v48c0,1.1-0.9,2-2,2H66.7c-1.1,0-2-0.9-2-2V10C64.7,8.9,65.6,8,66.7,8z"/>
</mask>
<path class="st2" d="M66.7,8H82c1.1,0,2,0.9,2,2v48c0,1.1-0.9,2-2,2H66.7c-1.1,0-2-0.9-2-2V10C64.7,8.9,65.6,8,66.7,8z"/>
<path class="st0" d="M72.5,17.7h3.7c0.6,0,1,0.4,1,1v0.4c0,0.6-0.4,1-1,1h-3.7c-0.6,0-1-0.4-1-1v-0.4C71.5,18.1,72,17.7,72.5,17.7z"
	/>
<path class="st0" d="M72.5,22.5h3.7c0.6,0,1,0.4,1,1v0.4c0,0.6-0.4,1-1,1h-3.7c-0.6,0-1-0.4-1-1v-0.4C71.5,23,72,22.5,72.5,22.5z"/>
<path class="st0" d="M72.5,27.3h3.7c0.6,0,1,0.4,1,1v0.4c0,0.6-0.4,1-1,1h-3.7c-0.6,0-1-0.4-1-1v-0.4C71.5,27.8,72,27.3,72.5,27.3z"
	/>
<ellipse class="st0" cx="74.4" cy="52.1" rx="1.7" ry="1.8"/>
</svg>
