<?xml version="1.0" encoding="utf-8"?>
<!-- Generator: Adobe Illustrator 26.3.1, SVG Export Plug-In . SVG Version: 6.00 Build 0)  -->
<svg version="1.1" id="레이어_1" xmlns="http://www.w3.org/2000/svg" xmlns:xlink="http://www.w3.org/1999/xlink" x="0px"
	 y="0px" viewBox="0 0 85 85" style="enable-background:new 0 0 85 85;" xml:space="preserve">
<style type="text/css">
	.st0{fill:#4E5968;}
</style>
<g>
	<path class="st0" d="M42.6,46.7c-0.7,0.2-1.4,0.4-2.1,0.4c-0.7,0-1.4-0.1-2.1-0.4l-21.1-7.2v20.6c0,0.6,0.4,1.1,0.9,1.3
		c7,2.7,14.5,4.1,21.9,4.1c7.4,0,14.8-1.3,21.9-4c0.5-0.2,0.9-0.7,0.9-1.3V39.6L42.6,46.7z"/>
	<path class="st0" d="M73.1,56.7V31.6v-0.1c0,0,0-0.1,0-0.1c0-0.6-0.4-1.1-0.9-1.3L40.5,18.1c-0.3-0.1-0.7-0.1-1,0L7.9,30
		C7.4,30.2,7,30.7,7,31.3c0,0.6,0.3,1.1,0.9,1.3l9.4,3.8c0,0,0,0,0,0l22,7.5c0.8,0.3,1.6,0.3,2.3,0l21.2-7.4c0,0,0,0,0,0l7.5-3v23.3
		c-2.2,0.6-3.8,2.7-3.8,5.2c0,3,2.4,5.4,5.3,5.4c2.9,0,5.3-2.4,5.3-5.4C77,59.4,75.3,57.3,73.1,56.7z M71.7,64.5
		c-1.4,0-2.5-1.1-2.5-2.5c0-1.4,1.1-2.5,2.5-2.5c1.4,0,2.5,1.1,2.5,2.5C74.2,63.3,73.1,64.5,71.7,64.5z"/>
</g>
</svg>
