<?xml version="1.0" encoding="utf-8"?>
<!-- Generator: Adobe Illustrator 26.3.1, SVG Export Plug-In . SVG Version: 6.00 Build 0)  -->
<svg version="1.1" id="레이어_1" xmlns="http://www.w3.org/2000/svg" xmlns:xlink="http://www.w3.org/1999/xlink" x="0px"
	 y="0px" viewBox="0 0 85 85" style="enable-background:new 0 0 85 85;" xml:space="preserve">
<style type="text/css">
	.st0{fill:#4E5968;}
</style>
<path class="st0" d="M74.2,66.1h-3.1V54.7c0-3.5-2.9-6.4-6.4-6.4h-0.5v-9.2c0-3.3-2.7-5.9-5.9-5.9h-1.8v-10c0-0.7-0.5-1.2-1.2-1.3
	c0.2-0.5,0.4-1.1,0.4-1.7c0-1.8-2.4-6.9-3.1-8.4c-0.2-0.5-0.7-0.7-1.2-0.7c-0.5,0-1,0.3-1.2,0.7c-0.7,1.5-3.1,6.6-3.1,8.4
	c0,0.6,0.1,1.2,0.4,1.7c-0.7,0.1-1.2,0.6-1.2,1.3v10h-6.5v-10c0-0.7-0.5-1.2-1.2-1.3c0.2-0.5,0.4-1.1,0.4-1.7c0-1.8-2.4-6.9-3.1-8.4
	c-0.2-0.5-0.7-0.7-1.2-0.7c-0.5,0-1,0.3-1.2,0.7c-0.7,1.5-3.1,6.6-3.1,8.4c0,0.6,0.1,1.2,0.4,1.7c-0.7,0.1-1.2,0.6-1.2,1.3v10h-1.8
	c-3.3,0-5.9,2.7-5.9,5.9v9.2h-0.5c-3.5,0-6.4,2.9-6.4,6.4v11.3h-3.1c-0.7,0-1.3,0.6-1.3,1.3v4.9c0,0.7,0.6,1.3,1.3,1.3h62.4
	c0.7,0,1.3-0.6,1.3-1.3v-4.9C75.5,66.7,74.9,66.1,74.2,66.1z M24.4,42.4h37.2v5.9H24.4V42.4z M51.4,15.5c0.9,2.1,1.7,4.1,1.7,4.7
	c0,0.9-0.8,1.7-1.7,1.7s-1.7-0.8-1.7-1.7C49.7,19.6,50.4,17.6,51.4,15.5z M48.8,24.4h5v8.7h-5V24.4z M34.6,15.5
	c0.9,2.1,1.7,4.1,1.7,4.7c0,0.9-0.8,1.7-1.7,1.7S33,21.1,33,20.2C33,19.6,33.7,17.6,34.6,15.5z M32.1,24.4h5v8.7h-5V24.4z
	 M17.5,57.6c1.1,0.1,1.8,0.5,2.6,0.9c1.2,0.6,2.5,1.2,5,1.2c2.5,0,3.9-0.6,5-1.2c1.1-0.5,2-0.9,3.9-0.9c1.9,0,2.8,0.4,3.9,0.9
	c1.2,0.6,2.5,1.2,5,1.2c2.5,0,3.9-0.6,5-1.2c1.1-0.5,2-0.9,3.9-0.9c1.9,0,2.9,0.4,3.9,0.9c1.2,0.6,2.5,1.2,5,1.2
	c2.5,0,3.9-0.6,5-1.2c0.8-0.4,1.5-0.7,2.6-0.9v8.4h-51V57.6z M72.9,71H13.1v-2.3h59.8V71z"/>
</svg>
