<?xml version="1.0" standalone="no"?>
<!DOCTYPE svg PUBLIC "-//W3C//DTD SVG 20010904//EN"
 "http://www.w3.org/TR/2001/REC-SVG-20010904/DTD/svg10.dtd">
<svg version="1.0" xmlns="http://www.w3.org/2000/svg"
 width="187.000000pt" height="187.000000pt" viewBox="0 0 187.000000 187.000000"
 preserveAspectRatio="xMidYMid meet">
<metadata>
Created by potrace 1.14, written by Peter Selinger 2001-2017
</metadata>
<g transform="translate(0.000000,187.000000) scale(0.100000,-0.100000)"
fill="#000000" stroke="none">
<path d="M278 1321 c-31 -10 -71 -28 -90 -39 -57 -36 -126 -114 -155 -177 -24
-52 -28 -73 -28 -150 0 -82 3 -97 32 -156 41 -82 111 -150 201 -192 l67 -32
218 -3 c120 -2 229 -1 243 2 l24 6 -2 378 -3 377 -225 2 c-194 2 -233 0 -282
-16z"/>
<path d="M1270 1326 c-114 -33 -211 -114 -258 -214 -26 -56 -27 -62 -30 -285
-2 -166 0 -232 9 -243 9 -12 72 -14 383 -14 276 0 375 3 384 12 9 9 12 73 12
225 0 241 -8 282 -75 373 -39 53 -135 123 -193 141 -58 17 -181 20 -232 5z"/>
</g>
</svg>
